<?xml version="1.0" encoding="UTF-8" standalone="no"?><svg xmlns="http://www.w3.org/2000/svg" xmlns:xlink="http://www.w3.org/1999/xlink" contentScriptType="application/ecmascript" contentStyleType="text/css" height="603px" preserveAspectRatio="none" style="width:611px;height:603px;background:#FFFFFF;" version="1.1" viewBox="0 0 611 603" width="611px" zoomAndPan="magnify"><defs><filter height="300%" id="fp1asofrhdsfo" width="300%" x="-1" y="-1"><feGaussianBlur result="blurOut" stdDeviation="2.0"/><feColorMatrix in="blurOut" result="blurOut2" type="matrix" values="0 0 0 0 0 0 0 0 0 0 0 0 0 0 0 0 0 0 .4 0"/><feOffset dx="4.0" dy="4.0" in="blurOut2" result="blurOut3"/><feBlend in="SourceGraphic" in2="blurOut3" mode="normal"/></filter></defs><g><!--MD5=[3fd616f346a44cd59a91eb10b19e157c]
class User--><rect codeLine="1" fill="#FEFECE" filter="url(#fp1asofrhdsfo)" height="188.8516" id="User" style="stroke:#A80036;stroke-width:1.5;" width="119" x="70" y="7"/><ellipse cx="111.1" cy="23" fill="#ADD1B2" rx="11" ry="11" style="stroke:#A80036;stroke-width:1.0;"/><path d="M114.0688,28.6406 Q113.4906,28.9375 112.85,29.0781 Q112.2094,29.2344 111.5063,29.2344 Q109.0063,29.2344 107.6781,27.5938 Q106.3656,25.9375 106.3656,22.8125 Q106.3656,19.6875 107.6781,18.0313 Q109.0063,16.375 111.5063,16.375 Q112.2094,16.375 112.85,16.5313 Q113.5063,16.6875 114.0688,16.9844 L114.0688,19.7031 Q113.4438,19.125 112.85,18.8594 Q112.2563,18.5781 111.6313,18.5781 Q110.2875,18.5781 109.6,19.6563 Q108.9125,20.7188 108.9125,22.8125 Q108.9125,24.9063 109.6,25.9844 Q110.2875,27.0469 111.6313,27.0469 Q112.2563,27.0469 112.85,26.7813 Q113.4438,26.5 114.0688,25.9219 L114.0688,28.6406 Z " fill="#000000"/><text fill="#000000" font-family="sans-serif" font-size="12" lengthAdjust="spacing" textLength="29" x="130.9" y="27.1543">User</text><line style="stroke:#A80036;stroke-width:1.5;" x1="71" x2="188" y1="39" y2="39"/><text fill="#000000" font-family="sans-serif" font-size="11" lengthAdjust="spacing" textLength="96" x="76" y="53.2104">String username</text><text fill="#000000" font-family="sans-serif" font-size="11" lengthAdjust="spacing" textLength="94" x="76" y="66.0151">String password</text><text fill="#000000" font-family="sans-serif" font-size="11" lengthAdjust="spacing" textLength="48" x="76" y="78.8198">int coins</text><line style="stroke:#A80036;stroke-width:1.5;" x1="71" x2="188" y1="85.4141" y2="85.4141"/><text fill="#000000" font-family="sans-serif" font-size="11" lengthAdjust="spacing" textLength="80" x="76" y="99.6245">registerUser()</text><text fill="#000000" font-family="sans-serif" font-size="11" lengthAdjust="spacing" textLength="62" x="76" y="112.4292">loginUser()</text><text fill="#000000" font-family="sans-serif" font-size="11" lengthAdjust="spacing" textLength="53" x="76" y="125.2339">getCard()</text><text fill="#000000" font-family="sans-serif" font-size="11" lengthAdjust="spacing" textLength="70" x="76" y="138.0386">defineDeck()</text><text fill="#000000" font-family="sans-serif" font-size="11" lengthAdjust="spacing" textLength="40" x="76" y="150.8433">battle()</text><text fill="#000000" font-family="sans-serif" font-size="11" lengthAdjust="spacing" textLength="107" x="76" y="163.6479">checkScoreBoard()</text><text fill="#000000" font-family="sans-serif" font-size="11" lengthAdjust="spacing" textLength="75" x="76" y="176.4526">buyPackage()</text><text fill="#000000" font-family="sans-serif" font-size="11" lengthAdjust="spacing" textLength="73" x="76" y="189.2573">tradingDeal()</text><!--MD5=[30299a58ba6b78debaaed5ddbb42f29a]
class Deck--><rect codeLine="17" fill="#FEFECE" filter="url(#fp1asofrhdsfo)" height="48" id="Deck" style="stroke:#A80036;stroke-width:1.5;" width="63" x="170" y="273"/><ellipse cx="185" cy="289" fill="#ADD1B2" rx="11" ry="11" style="stroke:#A80036;stroke-width:1.0;"/><path d="M187.9688,294.6406 Q187.3906,294.9375 186.75,295.0781 Q186.1094,295.2344 185.4063,295.2344 Q182.9063,295.2344 181.5781,293.5938 Q180.2656,291.9375 180.2656,288.8125 Q180.2656,285.6875 181.5781,284.0313 Q182.9063,282.375 185.4063,282.375 Q186.1094,282.375 186.75,282.5313 Q187.4063,282.6875 187.9688,282.9844 L187.9688,285.7031 Q187.3438,285.125 186.75,284.8594 Q186.1563,284.5781 185.5313,284.5781 Q184.1875,284.5781 183.5,285.6563 Q182.8125,286.7188 182.8125,288.8125 Q182.8125,290.9063 183.5,291.9844 Q184.1875,293.0469 185.5313,293.0469 Q186.1563,293.0469 186.75,292.7813 Q187.3438,292.5 187.9688,291.9219 L187.9688,294.6406 Z " fill="#000000"/><text fill="#000000" font-family="sans-serif" font-size="12" lengthAdjust="spacing" textLength="31" x="199" y="293.1543">Deck</text><line style="stroke:#A80036;stroke-width:1.5;" x1="171" x2="232" y1="305" y2="305"/><line style="stroke:#A80036;stroke-width:1.5;" x1="171" x2="232" y1="313" y2="313"/><!--MD5=[5e305716458bbdabbd2d7f572ed2bae2]
class Card--><rect codeLine="21" fill="#FEFECE" filter="url(#fp1asofrhdsfo)" height="86.4141" id="Card" style="stroke:#A80036;stroke-width:1.5;" width="124" x="67.5" y="382"/><ellipse cx="110.85" cy="398" fill="#ADD1B2" rx="11" ry="11" style="stroke:#A80036;stroke-width:1.0;"/><path d="M113.8188,403.6406 Q113.2406,403.9375 112.6,404.0781 Q111.9594,404.2344 111.2563,404.2344 Q108.7563,404.2344 107.4281,402.5938 Q106.1156,400.9375 106.1156,397.8125 Q106.1156,394.6875 107.4281,393.0313 Q108.7563,391.375 111.2563,391.375 Q111.9594,391.375 112.6,391.5313 Q113.2563,391.6875 113.8188,391.9844 L113.8188,394.7031 Q113.1938,394.125 112.6,393.8594 Q112.0063,393.5781 111.3813,393.5781 Q110.0375,393.5781 109.35,394.6563 Q108.6625,395.7188 108.6625,397.8125 Q108.6625,399.9063 109.35,400.9844 Q110.0375,402.0469 111.3813,402.0469 Q112.0063,402.0469 112.6,401.7813 Q113.1938,401.5 113.8188,400.9219 L113.8188,403.6406 Z " fill="#000000"/><text fill="#000000" font-family="sans-serif" font-size="12" lengthAdjust="spacing" textLength="29" x="131.15" y="402.1543">Card</text><line style="stroke:#A80036;stroke-width:1.5;" x1="68.5" x2="190.5" y1="414" y2="414"/><text fill="#000000" font-family="sans-serif" font-size="11" lengthAdjust="spacing" textLength="70" x="73.5" y="428.2104">String name</text><text fill="#000000" font-family="sans-serif" font-size="11" lengthAdjust="spacing" textLength="112" x="73.5" y="441.0151">final String damage</text><text fill="#000000" font-family="sans-serif" font-size="11" lengthAdjust="spacing" textLength="109" x="73.5" y="453.8198">enum elementType</text><line style="stroke:#A80036;stroke-width:1.5;" x1="68.5" x2="190.5" y1="460.4141" y2="460.4141"/><!--MD5=[801abd42a1f0e3c1039de247edfe5aa8]
class SpellCard--><rect codeLine="27" fill="#FEFECE" filter="url(#fp1asofrhdsfo)" height="48" id="SpellCard" style="stroke:#A80036;stroke-width:1.5;" width="91" x="7" y="535.5"/><ellipse cx="22" cy="551.5" fill="#ADD1B2" rx="11" ry="11" style="stroke:#A80036;stroke-width:1.0;"/><path d="M24.9688,557.1406 Q24.3906,557.4375 23.75,557.5781 Q23.1094,557.7344 22.4063,557.7344 Q19.9063,557.7344 18.5781,556.0938 Q17.2656,554.4375 17.2656,551.3125 Q17.2656,548.1875 18.5781,546.5313 Q19.9063,544.875 22.4063,544.875 Q23.1094,544.875 23.75,545.0313 Q24.4063,545.1875 24.9688,545.4844 L24.9688,548.2031 Q24.3438,547.625 23.75,547.3594 Q23.1563,547.0781 22.5313,547.0781 Q21.1875,547.0781 20.5,548.1563 Q19.8125,549.2188 19.8125,551.3125 Q19.8125,553.4063 20.5,554.4844 Q21.1875,555.5469 22.5313,555.5469 Q23.1563,555.5469 23.75,555.2813 Q24.3438,555 24.9688,554.4219 L24.9688,557.1406 Z " fill="#000000"/><text fill="#000000" font-family="sans-serif" font-size="12" lengthAdjust="spacing" textLength="59" x="36" y="555.6543">SpellCard</text><line style="stroke:#A80036;stroke-width:1.5;" x1="8" x2="97" y1="567.5" y2="567.5"/><line style="stroke:#A80036;stroke-width:1.5;" x1="8" x2="97" y1="575.5" y2="575.5"/><!--MD5=[38a4cc4b862622ae18c211e34a8b180b]
class MonsterCard--><rect codeLine="31" fill="#FEFECE" filter="url(#fp1asofrhdsfo)" height="60.8047" id="MonsterCard" style="stroke:#A80036;stroke-width:1.5;" width="147" x="133" y="529"/><ellipse cx="163.75" cy="545" fill="#ADD1B2" rx="11" ry="11" style="stroke:#A80036;stroke-width:1.0;"/><path d="M166.7188,550.6406 Q166.1406,550.9375 165.5,551.0781 Q164.8594,551.2344 164.1563,551.2344 Q161.6563,551.2344 160.3281,549.5938 Q159.0156,547.9375 159.0156,544.8125 Q159.0156,541.6875 160.3281,540.0313 Q161.6563,538.375 164.1563,538.375 Q164.8594,538.375 165.5,538.5313 Q166.1563,538.6875 166.7188,538.9844 L166.7188,541.7031 Q166.0938,541.125 165.5,540.8594 Q164.9063,540.5781 164.2813,540.5781 Q162.9375,540.5781 162.25,541.6563 Q161.5625,542.7188 161.5625,544.8125 Q161.5625,546.9063 162.25,547.9844 Q162.9375,549.0469 164.2813,549.0469 Q164.9063,549.0469 165.5,548.7813 Q166.0938,548.5 166.7188,547.9219 L166.7188,550.6406 Z " fill="#000000"/><text fill="#000000" font-family="sans-serif" font-size="12" lengthAdjust="spacing" textLength="80" x="181.25" y="549.1543">MonsterCard</text><line style="stroke:#A80036;stroke-width:1.5;" x1="134" x2="279" y1="561" y2="561"/><text fill="#000000" font-family="sans-serif" font-size="11" lengthAdjust="spacing" textLength="135" x="139" y="575.2104">MonsterTyp monstertyp</text><line style="stroke:#A80036;stroke-width:1.5;" x1="134" x2="279" y1="581.8047" y2="581.8047"/><!--MD5=[56044dde1eb5c59443a17cac917b404f]
class Battle--><rect codeLine="35" fill="#FEFECE" filter="url(#fp1asofrhdsfo)" height="48" id="Battle" style="stroke:#A80036;stroke-width:1.5;" width="69" x="238" y="77.5"/><ellipse cx="253" cy="93.5" fill="#ADD1B2" rx="11" ry="11" style="stroke:#A80036;stroke-width:1.0;"/><path d="M255.9688,99.1406 Q255.3906,99.4375 254.75,99.5781 Q254.1094,99.7344 253.4063,99.7344 Q250.9063,99.7344 249.5781,98.0938 Q248.2656,96.4375 248.2656,93.3125 Q248.2656,90.1875 249.5781,88.5313 Q250.9063,86.875 253.4063,86.875 Q254.1094,86.875 254.75,87.0313 Q255.4063,87.1875 255.9688,87.4844 L255.9688,90.2031 Q255.3438,89.625 254.75,89.3594 Q254.1563,89.0781 253.5313,89.0781 Q252.1875,89.0781 251.5,90.1563 Q250.8125,91.2188 250.8125,93.3125 Q250.8125,95.4063 251.5,96.4844 Q252.1875,97.5469 253.5313,97.5469 Q254.1563,97.5469 254.75,97.2813 Q255.3438,97 255.9688,96.4219 L255.9688,99.1406 Z " fill="#000000"/><text fill="#000000" font-family="sans-serif" font-size="12" lengthAdjust="spacing" textLength="37" x="267" y="97.6543">Battle</text><line style="stroke:#A80036;stroke-width:1.5;" x1="239" x2="306" y1="109.5" y2="109.5"/><line style="stroke:#A80036;stroke-width:1.5;" x1="239" x2="306" y1="117.5" y2="117.5"/><!--MD5=[fe9bfd972914321ee85e78ae86b136d5]
class ElementType--><rect codeLine="40" fill="#FEFECE" filter="url(#fp1asofrhdsfo)" height="86.4141" id="ElementType" style="stroke:#A80036;stroke-width:1.5;" width="112" x="342.5" y="58.5"/><ellipse cx="357.5" cy="74.5" fill="#EB937F" rx="11" ry="11" style="stroke:#A80036;stroke-width:1.0;"/><path d="M361.6094,80.5 L353.8906,80.5 L353.8906,68.1094 L361.6094,68.1094 L361.6094,70.2656 L356.3438,70.2656 L356.3438,72.9375 L361.1094,72.9375 L361.1094,75.0938 L356.3438,75.0938 L356.3438,78.3438 L361.6094,78.3438 L361.6094,80.5 Z " fill="#000000"/><text fill="#000000" font-family="sans-serif" font-size="12" lengthAdjust="spacing" textLength="80" x="371.5" y="78.6543">ElementType</text><line style="stroke:#A80036;stroke-width:1.5;" x1="343.5" x2="453.5" y1="90.5" y2="90.5"/><text fill="#000000" font-family="sans-serif" font-size="11" lengthAdjust="spacing" textLength="23" x="348.5" y="104.7104">FIRE</text><text fill="#000000" font-family="sans-serif" font-size="11" lengthAdjust="spacing" textLength="37" x="348.5" y="117.5151">WATER</text><text fill="#000000" font-family="sans-serif" font-size="11" lengthAdjust="spacing" textLength="46" x="348.5" y="130.3198">NORMAL</text><line style="stroke:#A80036;stroke-width:1.5;" x1="343.5" x2="453.5" y1="136.9141" y2="136.9141"/><!--MD5=[a5e6575ed9dd8e6ff2c6e9121a45f8ad]
class MonserType--><rect codeLine="46" fill="#FEFECE" filter="url(#fp1asofrhdsfo)" height="137.6328" id="MonserType" style="stroke:#A80036;stroke-width:1.5;" width="107" x="490" y="32.5"/><ellipse cx="505" cy="48.5" fill="#EB937F" rx="11" ry="11" style="stroke:#A80036;stroke-width:1.0;"/><path d="M509.1094,54.5 L501.3906,54.5 L501.3906,42.1094 L509.1094,42.1094 L509.1094,44.2656 L503.8438,44.2656 L503.8438,46.9375 L508.6094,46.9375 L508.6094,49.0938 L503.8438,49.0938 L503.8438,52.3438 L509.1094,52.3438 L509.1094,54.5 Z " fill="#000000"/><text fill="#000000" font-family="sans-serif" font-size="12" lengthAdjust="spacing" textLength="75" x="519" y="52.6543">MonserType</text><line style="stroke:#A80036;stroke-width:1.5;" x1="491" x2="596" y1="64.5" y2="64.5"/><text fill="#000000" font-family="sans-serif" font-size="11" lengthAdjust="spacing" textLength="43" x="496" y="78.7104">GLOBIN</text><text fill="#000000" font-family="sans-serif" font-size="11" lengthAdjust="spacing" textLength="48" x="496" y="91.5151">DRAGON</text><text fill="#000000" font-family="sans-serif" font-size="11" lengthAdjust="spacing" textLength="52" x="496" y="104.3198">WIZZARD</text><text fill="#000000" font-family="sans-serif" font-size="11" lengthAdjust="spacing" textLength="23" x="496" y="117.1245">ORK</text><text fill="#000000" font-family="sans-serif" font-size="11" lengthAdjust="spacing" textLength="42" x="496" y="129.9292">KNIGHT</text><text fill="#000000" font-family="sans-serif" font-size="11" lengthAdjust="spacing" textLength="43" x="496" y="142.7339">KRAKEN</text><text fill="#000000" font-family="sans-serif" font-size="11" lengthAdjust="spacing" textLength="19" x="496" y="155.5386">ELF</text><line style="stroke:#A80036;stroke-width:1.5;" x1="491" x2="596" y1="162.1328" y2="162.1328"/><!--MD5=[85a81cae97260764625d1036e8eb36a6]
reverse link Card to SpellCard--><path d="M94.6647,485.8487 C84.6004,503.4285 74.1991,521.597 66.2452,535.4905 " fill="none" id="Card-backto-SpellCard" style="stroke:#A80036;stroke-width:1.0;"/><polygon fill="none" points="88.7012,482.1761,104.7129,468.297,100.8511,489.1318,88.7012,482.1761" style="stroke:#A80036;stroke-width:1.0;"/><!--MD5=[b4d2877e8eaa45a8c8a477de73fe995a]
reverse link Card to MonsterCard--><path d="M164.3865,485.9382 C172.8532,500.7273 181.555,515.9272 188.8346,528.643 " fill="none" id="Card-backto-MonsterCard" style="stroke:#A80036;stroke-width:1.0;"/><polygon fill="none" points="158.1489,489.1318,154.2871,468.297,170.2988,482.1761,158.1489,489.1318" style="stroke:#A80036;stroke-width:1.0;"/><!--MD5=[06797b04c4b759dce8e5fa2e561b7100]
link User to Card--><path codeLine="58" d="M129.5,196.3748 C129.5,257.7125 129.5,334.6225 129.5,381.7653 " fill="none" id="User-Card" style="stroke:#A80036;stroke-width:1.0;"/><text fill="#000000" font-family="sans-serif" font-size="13" lengthAdjust="spacing" textLength="8" x="121.2063" y="215.9702">1</text><text fill="#000000" font-family="sans-serif" font-size="13" lengthAdjust="spacing" textLength="7" x="121.9641" y="371.0419">*</text><!--MD5=[f23da0e79fa4360295ce260f36319316]
link User to Deck--><path codeLine="59" d="M164.34,196.1003 C174.8214,224.5601 185.4339,253.3762 192.6189,272.8855 " fill="none" id="User-Deck" style="stroke:#A80036;stroke-width:1.0;"/><text fill="#000000" font-family="sans-serif" font-size="13" lengthAdjust="spacing" textLength="8" x="158.7012" y="215.995">1</text><text fill="#000000" font-family="sans-serif" font-size="13" lengthAdjust="spacing" textLength="8" x="181.3181" y="261.8682">1</text><!--MD5=[c905f1b8e8f3426bca82a4905da2e16e]
link Deck to Card--><path codeLine="60" d="M187.9574,321.0758 C178.3437,338.1667 165.1726,361.582 153.7661,381.8602 " fill="none" id="Deck-Card" style="stroke:#A80036;stroke-width:1.0;"/><text fill="#000000" font-family="sans-serif" font-size="13" lengthAdjust="spacing" textLength="8" x="175.4621" y="341.251">1</text><text fill="#000000" font-family="sans-serif" font-size="13" lengthAdjust="spacing" textLength="8" x="148.996" y="370.834">4</text><!--MD5=[5b9d44c019400a3b99e0641c2396d567]
reverse link Battle to Deck--><path codeLine="61" d="M252.2925,130.2467 C236.4257,154.5261 215.4138,190.8619 205.5,226 C201.2089,241.2091 200.2089,258.9591 200.2817,272.9068 " fill="none" id="Battle-backto-Deck" style="stroke:#A80036;stroke-width:1.0;"/><polygon fill="#A80036" points="255.1914,125.8565,246.8942,131.1628,252.4363,130.0289,253.5701,135.571,255.1914,125.8565" style="stroke:#A80036;stroke-width:1.0;"/><text fill="#000000" font-family="sans-serif" font-size="13" lengthAdjust="spacing" textLength="36" x="206.5" y="239.0669">user1</text><!--MD5=[5b9d44c019400a3b99e0641c2396d567]
reverse link Battle to Deck--><path codeLine="62" d="M271.7668,131.0164 C270.0251,160.6224 264.5132,206.8824 247.5,243 C242.4094,253.807 234.5723,264.1771 226.8009,272.8898 " fill="none" id="Battle-backto-Deck-1" style="stroke:#A80036;stroke-width:1.0;"/><polygon fill="#A80036" points="272.0501,125.6883,267.5777,134.4631,271.7845,130.6812,275.5664,134.8881,272.0501,125.6883" style="stroke:#A80036;stroke-width:1.0;"/><text fill="#000000" font-family="sans-serif" font-size="13" lengthAdjust="spacing" textLength="36" x="253.5" y="239.0669">user2</text><!--MD5=[c56f6baa59073ff3393006920a29469a]
@startuml
class User {
  String username
  String password
  int coins
  
  registerUser()
  loginUser()
  getCard()
  defineDeck()
  battle()
  checkScoreBoard()
  buyPackage()
  tradingDeal()
  
}

class Deck {

}

class Card {
  String name
  final String damage
  enum elementType
}

class SpellCard extends Card {

}

class MonsterCard extends Card {
  MonsterTyp monstertyp
}

class Battle {

}


enum ElementType {
  FIRE
  WATER
  NORMAL
}

enum MonserType {
  GLOBIN
  DRAGON
  WIZZARD
  ORK
  KNIGHT
  KRAKEN
  ELF
}



User "1" - - "*" Card
User "1" - - "1" Deck
Deck "1" - - "4" Card
Battle <- - Deck : user1
Battle <- - Deck : user2
@enduml

PlantUML version 1.2021.7(Sun May 23 12:40:07 UTC 2021)
(GPL source distribution)
Java Runtime: OpenJDK Runtime Environment
JVM: OpenJDK 64-Bit Server VM
Default Encoding: UTF-8
Language: en
Country: US
--></g></svg>